<svg id="svg" version="1.1" xmlns="http://www.w3.org/2000/svg" xmlns:xlink="http://www.w3.org/1999/xlink"  viewBox="0, 0, 400,134.40860215053763"><g id="svgg"><path id="path0" d="M203.167 67.167 L 203.167 134.333 301.583 134.333 L 400.000 134.333 400.000 67.167 L 400.000 0.000 301.583 0.000 L 203.167 0.000 203.167 67.167 M395.000 67.167 L 395.000 129.333 301.667 129.333 L 208.333 129.333 208.333 67.167 L 208.333 5.000 301.667 5.000 L 395.000 5.000 395.000 67.167 " stroke="none" fill="#fcfcfc" fill-rule="evenodd"></path><path id="path1" d="M394.916 67.167 C 394.916 101.404,394.935 115.410,394.958 98.292 C 394.982 81.173,394.982 53.160,394.958 36.042 C 394.935 18.923,394.916 32.929,394.916 67.167 M16.403 12.653 C 16.365 12.691,16.333 18.785,16.333 26.194 L 16.333 39.667 25.083 39.667 L 33.833 39.667 33.833 38.083 L 33.833 36.500 26.833 36.500 L 19.833 36.500 19.833 32.167 L 19.833 27.833 25.250 27.833 L 30.667 27.833 30.667 26.250 L 30.667 24.667 25.250 24.667 L 19.833 24.667 19.833 20.335 L 19.833 16.004 26.375 15.960 L 32.917 15.917 32.917 14.288 L 32.917 12.660 24.694 12.622 C 20.172 12.601,16.441 12.615,16.403 12.653 M66.417 20.952 C 66.100 21.029,65.417 21.304,64.500 21.725 C 64.271 21.831,63.655 22.339,63.131 22.855 L 62.180 23.794 62.131 22.439 L 62.083 21.083 60.458 21.036 L 58.833 20.988 58.833 30.327 L 58.833 39.667 60.500 39.667 L 62.167 39.667 62.167 34.675 C 62.167 31.615,62.239 29.341,62.354 28.800 C 62.916 26.150,65.004 24.460,67.708 24.466 L 68.833 24.468 68.833 22.651 L 68.833 20.833 67.792 20.853 C 67.219 20.863,66.600 20.908,66.417 20.952 M78.417 20.915 C 78.325 20.946,77.800 21.103,77.250 21.264 C 68.080 23.951,68.638 37.649,78.000 39.681 C 90.123 42.313,94.949 24.835,83.107 21.185 C 82.074 20.867,79.077 20.694,78.417 20.915 M101.047 21.249 C 99.770 21.673,99.135 22.052,98.125 22.988 L 97.500 23.568 97.500 22.284 L 97.500 21.000 95.833 21.000 L 94.167 21.000 94.167 34.083 L 94.167 47.167 95.833 47.167 L 97.500 47.167 97.500 42.250 C 97.500 39.546,97.540 37.333,97.590 37.333 C 97.639 37.333,97.974 37.616,98.334 37.962 C 101.042 40.564,106.185 40.560,109.544 37.955 C 113.077 35.215,113.842 29.366,111.259 24.856 C 109.458 21.712,104.703 20.032,101.047 21.249 M122.250 21.232 C 113.639 24.063,114.027 37.342,122.788 39.608 C 125.988 40.436,129.770 39.530,131.958 37.411 C 133.052 36.353,133.057 36.404,131.720 35.280 L 130.606 34.344 129.798 35.100 C 127.377 37.365,123.467 37.399,121.190 35.174 C 120.427 34.429,119.500 32.645,119.500 31.920 L 119.500 31.500 126.484 31.500 L 133.469 31.500 133.576 30.708 C 134.428 24.411,128.265 19.254,122.250 21.232 M143.081 21.227 C 140.871 21.943,138.884 23.589,137.923 25.500 C 136.339 28.651,136.381 32.689,138.029 35.620 C 140.593 40.179,147.461 41.367,151.300 37.915 L 152.167 37.136 152.167 38.401 L 152.167 39.667 153.833 39.667 L 155.500 39.667 155.500 30.333 L 155.500 21.000 153.833 21.000 L 152.167 21.000 152.167 22.267 L 152.167 23.535 151.571 23.012 C 149.248 20.972,145.986 20.286,143.081 21.227 M167.997 21.224 C 166.303 21.822,165.197 22.542,164.292 23.638 L 163.833 24.192 163.833 22.596 L 163.833 21.000 162.250 21.000 L 160.667 21.000 160.667 30.333 L 160.667 39.667 162.234 39.667 L 163.802 39.667 163.874 34.375 C 163.950 28.788,164.015 28.274,164.853 26.630 C 166.502 23.392,171.808 22.982,173.318 25.976 C 173.875 27.081,174.000 28.592,174.000 34.222 L 174.000 39.667 175.667 39.667 L 177.333 39.667 177.332 33.958 C 177.331 27.037,177.228 25.947,176.415 24.258 C 175.003 21.321,171.399 20.023,167.997 21.224 M37.228 21.247 C 37.052 21.707,37.293 33.879,37.498 34.825 C 38.619 40.019,45.223 41.708,49.331 37.851 L 50.167 37.066 50.167 38.367 L 50.167 39.667 51.833 39.667 L 53.500 39.667 53.500 30.333 L 53.500 21.000 51.845 21.000 L 50.190 21.000 50.137 26.708 L 50.083 32.417 49.620 33.405 C 48.482 35.837,47.203 36.725,44.821 36.740 C 41.068 36.763,40.500 35.419,40.500 26.507 L 40.500 21.000 38.911 21.000 C 37.661 21.000,37.303 21.053,37.228 21.247 M83.083 24.543 C 88.979 27.571,86.917 36.718,80.333 36.740 C 73.810 36.762,71.543 27.902,77.249 24.682 C 78.731 23.845,81.592 23.777,83.083 24.543 M106.187 24.632 C 110.627 27.179,110.514 34.221,106.000 36.302 C 100.969 38.622,95.952 33.551,97.843 28.056 C 99.034 24.594,103.166 22.899,106.187 24.632 M127.697 24.602 C 129.062 25.542,130.333 27.475,130.333 28.609 C 130.333 28.641,127.891 28.667,124.905 28.667 L 119.478 28.667 119.595 28.292 C 120.246 26.207,121.742 24.575,123.393 24.149 C 124.601 23.836,126.945 24.083,127.697 24.602 M148.776 24.515 C 149.934 25.212,151.500 26.810,151.500 27.294 C 151.500 27.384,151.658 27.815,151.851 28.252 C 152.329 29.333,152.241 32.005,151.688 33.199 C 149.946 36.961,145.025 38.027,142.051 35.286 C 138.622 32.125,140.073 25.273,144.412 24.145 C 145.492 23.864,148.056 24.081,148.776 24.515 M334.250 44.833 L 333.083 44.941 334.198 44.971 C 334.812 44.987,335.360 44.925,335.417 44.833 C 335.473 44.742,335.496 44.680,335.468 44.696 C 335.440 44.712,334.892 44.774,334.250 44.833 M0.000 67.167 L 0.000 80.667 1.750 80.667 L 3.500 80.667 3.500 67.167 L 3.500 53.667 1.750 53.667 L 0.000 53.667 0.000 67.167 M130.333 54.521 C 129.206 54.970,128.671 56.076,129.005 57.269 C 129.690 59.713,133.382 59.318,133.407 56.797 C 133.426 54.962,131.956 53.874,130.333 54.521 M117.750 55.612 C 116.382 55.783,116.500 55.472,116.500 58.912 L 116.500 61.985 115.375 62.034 L 114.250 62.083 114.202 63.542 L 114.154 65.000 115.327 65.000 L 116.500 65.000 116.503 69.958 C 116.508 78.241,116.812 79.410,119.252 80.533 C 121.487 81.561,126.354 80.527,125.886 79.124 C 125.786 78.827,125.611 78.225,125.496 77.787 C 125.228 76.765,125.192 76.750,124.168 77.265 C 123.508 77.597,123.037 77.702,122.158 77.716 C 119.971 77.749,119.833 77.295,119.833 70.056 L 119.833 65.000 122.923 65.000 L 126.013 65.000 125.965 63.542 L 125.917 62.083 122.875 62.038 L 119.833 61.992 119.833 58.746 L 119.833 55.500 119.042 55.525 C 118.606 55.539,118.025 55.578,117.750 55.612 M17.083 62.157 C 15.689 62.573,14.790 63.079,13.745 64.033 L 12.847 64.854 12.799 63.469 L 12.750 62.083 11.125 62.036 L 9.500 61.988 9.500 71.327 L 9.500 80.667 11.167 80.667 L 12.833 80.667 12.833 75.399 C 12.833 69.529,12.933 68.764,13.887 67.294 C 15.646 64.584,20.116 64.147,21.871 66.514 C 22.676 67.600,22.833 68.990,22.833 75.030 L 22.833 80.667 24.512 80.667 L 26.191 80.667 26.119 74.125 C 26.035 66.472,25.969 66.056,24.531 64.041 C 23.229 62.219,19.791 61.349,17.083 62.157 M39.583 61.950 C 37.946 62.334,36.476 63.095,35.465 64.082 L 34.680 64.849 34.632 63.466 L 34.583 62.083 32.958 62.036 L 31.333 61.988 31.333 71.327 L 31.333 80.667 33.000 80.667 L 34.667 80.667 34.667 75.087 L 34.667 69.507 35.115 68.414 C 36.090 66.041,37.533 65.091,40.167 65.086 C 44.114 65.080,44.500 65.919,44.500 74.522 L 44.500 80.667 46.167 80.667 L 47.833 80.667 47.833 74.094 L 47.833 67.521 47.403 66.186 C 47.166 65.452,46.866 64.763,46.736 64.655 C 46.606 64.547,46.500 64.383,46.500 64.291 C 46.500 64.103,45.486 63.107,44.911 62.731 C 43.897 62.066,40.938 61.633,39.583 61.950 M58.917 62.157 C 55.909 62.921,53.684 64.889,52.544 67.790 C 51.918 69.383,51.870 73.436,52.461 74.730 C 52.666 75.177,52.833 75.606,52.833 75.685 C 52.833 76.513,55.146 78.947,56.750 79.807 C 62.824 83.063,70.071 79.527,71.016 72.846 C 72.025 65.716,65.967 60.364,58.917 62.157 M98.667 62.175 C 96.607 62.777,94.613 64.215,93.718 65.744 C 90.635 71.004,92.047 77.483,96.805 79.906 C 100.208 81.640,104.242 81.184,106.792 78.778 L 107.667 77.952 107.667 79.309 L 107.667 80.667 109.251 80.667 L 110.836 80.667 110.793 71.375 L 110.750 62.083 109.125 62.036 L 107.500 61.988 107.500 63.244 C 107.500 64.687,107.505 64.682,106.768 63.946 C 104.947 62.124,101.454 61.361,98.667 62.175 M143.917 62.232 C 138.949 63.625,136.252 68.414,137.412 73.781 C 139.402 82.986,152.882 83.489,155.905 74.471 C 158.414 66.984,151.639 60.067,143.917 62.232 M168.250 62.155 C 166.843 62.571,165.497 63.374,164.600 64.333 L 163.833 65.152 163.833 63.576 L 163.833 62.000 162.250 62.000 L 160.667 62.000 160.667 71.333 L 160.667 80.667 162.236 80.667 L 163.805 80.667 163.874 75.375 C 163.946 69.799,164.010 69.284,164.838 67.658 C 166.396 64.600,171.347 64.012,173.110 66.676 C 173.859 67.809,173.987 69.030,173.994 75.125 L 174.000 80.667 175.667 80.667 L 177.333 80.667 177.330 75.042 C 177.326 67.059,177.127 65.789,175.580 63.901 C 174.095 62.089,170.981 61.347,168.250 62.155 M72.595 62.149 C 72.515 62.277,72.670 62.719,73.332 64.250 C 73.519 64.681,74.281 66.537,74.667 67.500 C 74.939 68.181,75.136 68.665,76.176 71.208 C 76.354 71.644,76.643 72.356,76.817 72.792 C 77.197 73.741,77.967 75.619,78.167 76.083 C 78.328 76.459,79.044 78.199,79.503 79.333 C 79.670 79.746,79.848 80.215,79.898 80.375 C 80.007 80.723,83.333 80.828,83.333 80.484 C 83.333 80.383,83.442 80.064,83.574 79.775 C 83.706 79.486,84.088 78.575,84.423 77.750 C 84.757 76.925,85.520 75.050,86.117 73.583 C 86.714 72.117,87.345 70.560,87.518 70.125 C 87.691 69.690,87.983 68.958,88.167 68.500 C 88.350 68.042,88.641 67.310,88.814 66.875 C 89.221 65.848,89.626 64.885,89.933 64.212 C 90.241 63.537,90.667 62.339,90.667 62.146 C 90.667 61.833,87.165 61.974,87.055 62.292 C 86.850 62.888,86.137 64.774,85.843 65.500 C 85.677 65.912,85.374 66.700,85.171 67.250 C 84.967 67.800,84.625 68.700,84.410 69.250 C 84.196 69.800,83.709 71.075,83.330 72.083 C 82.950 73.092,82.504 74.254,82.339 74.667 C 82.173 75.079,81.949 75.637,81.841 75.907 C 81.647 76.392,81.640 76.383,81.064 74.907 C 80.744 74.087,80.343 73.079,80.172 72.667 C 80.001 72.254,79.401 70.717,78.839 69.250 C 78.276 67.783,77.678 66.246,77.509 65.833 C 77.340 65.421,76.999 64.558,76.753 63.917 C 76.506 63.275,76.237 62.581,76.156 62.375 C 75.999 61.979,72.824 61.777,72.595 62.149 M129.500 71.333 L 129.500 80.667 131.167 80.667 L 132.833 80.667 132.833 71.333 L 132.833 62.000 131.167 62.000 L 129.500 62.000 129.500 71.333 M64.167 65.499 C 70.245 68.597,68.317 77.736,61.583 77.747 C 54.272 77.759,52.829 66.977,59.897 65.148 C 60.919 64.883,63.351 65.083,64.167 65.499 M104.085 65.556 C 106.914 67.038,108.255 70.559,107.177 73.675 C 105.468 78.615,98.864 79.362,96.255 74.910 C 93.132 69.581,98.813 62.794,104.085 65.556 M149.529 65.576 C 153.408 67.575,154.182 73.025,151.029 76.146 C 147.781 79.360,142.221 77.894,140.830 73.456 C 139.125 68.018,144.616 63.044,149.529 65.576 M337.125 65.290 C 337.790 65.322,338.877 65.322,339.542 65.290 C 340.206 65.259,339.662 65.233,338.333 65.233 C 337.004 65.233,336.460 65.259,337.125 65.290 M346.132 65.291 C 347.845 65.328,348.481 65.395,348.398 65.530 C 348.327 65.645,348.357 65.672,348.474 65.599 C 349.020 65.262,348.489 65.169,346.208 65.203 L 343.750 65.240 346.132 65.291 M62.734 94.665 C 59.396 95.334,57.122 96.684,55.149 99.167 C 50.989 104.402,51.355 113.606,55.901 118.090 C 60.997 123.117,69.800 123.194,74.950 118.257 C 76.517 116.754,76.534 116.711,75.792 116.163 C 75.494 115.943,74.932 115.470,74.544 115.112 L 73.838 114.462 72.582 115.636 C 67.186 120.675,59.220 118.977,56.559 112.222 C 55.857 110.440,55.861 106.187,56.568 104.267 C 59.137 97.281,67.263 95.533,72.691 100.799 L 73.798 101.873 75.066 100.815 C 76.596 99.538,76.586 99.704,75.204 98.353 C 71.803 95.029,67.407 93.729,62.734 94.665 M174.000 108.139 C 174.000 115.549,174.031 121.642,174.069 121.681 C 174.107 121.719,174.857 121.726,175.735 121.697 L 177.333 121.644 177.333 108.155 L 177.333 94.667 175.667 94.667 L 174.000 94.667 174.000 108.139 M165.917 95.539 C 164.895 95.906,164.374 96.925,164.580 98.150 C 164.944 100.302,168.268 100.458,168.966 98.356 C 169.584 96.494,167.813 94.858,165.917 95.539 M86.333 103.157 C 82.750 104.003,80.343 106.436,79.400 110.167 C 78.880 112.223,79.362 115.739,80.362 117.192 C 80.530 117.436,80.667 117.708,80.667 117.798 C 80.667 117.888,81.135 118.442,81.708 119.030 C 86.346 123.790,94.841 122.521,97.536 116.667 C 101.038 109.060,94.538 101.222,86.333 103.157 M131.882 103.094 C 130.457 103.406,129.375 103.992,128.181 105.097 L 127.167 106.036 127.167 104.601 L 127.167 103.167 125.583 103.167 L 124.000 103.167 124.000 112.458 L 124.000 121.750 125.570 121.750 L 127.140 121.750 127.207 116.333 C 127.282 110.306,127.355 109.824,128.425 108.242 C 130.259 105.531,134.562 105.106,136.239 107.470 C 137.156 108.762,137.211 109.201,137.288 115.750 L 137.358 121.750 138.971 121.721 L 140.583 121.693 140.634 116.471 C 140.694 110.278,140.516 108.042,139.842 106.520 C 138.527 103.550,135.583 102.282,131.882 103.094 M151.500 103.150 C 142.632 105.190,142.117 118.537,150.792 121.480 C 153.815 122.505,158.209 121.659,160.792 119.555 C 161.758 118.767,161.779 118.838,160.119 117.335 L 159.321 116.613 158.786 117.112 C 155.422 120.249,150.003 119.097,148.398 114.903 C 145.965 108.544,153.257 103.095,158.341 107.474 C 159.327 108.323,159.147 108.339,160.417 107.292 C 161.635 106.287,161.622 106.314,161.125 105.785 C 158.858 103.374,155.054 102.332,151.500 103.150 M102.336 109.125 C 102.339 117.083,102.648 118.595,104.625 120.335 C 107.147 122.555,111.688 122.389,114.392 119.979 L 115.333 119.140 115.333 120.403 L 115.333 121.667 117.000 121.667 L 118.667 121.667 118.667 112.417 L 118.667 103.167 117.000 103.167 L 115.333 103.167 115.333 108.468 C 115.333 114.328,115.234 115.008,114.145 116.608 C 112.414 119.150,108.716 119.656,106.905 117.598 C 105.790 116.331,105.667 115.452,105.667 108.745 L 105.667 103.167 104.000 103.167 L 102.333 103.167 102.336 109.125 M165.167 112.405 L 165.167 121.644 166.765 121.697 C 167.643 121.726,168.393 121.719,168.431 121.681 C 168.469 121.642,168.500 117.461,168.500 112.389 L 168.500 103.167 166.833 103.167 L 165.167 103.167 165.167 112.405 M303.133 106.033 C 303.288 106.186,308.001 106.284,308.000 106.133 C 308.000 106.069,306.879 105.994,305.508 105.967 C 304.137 105.939,303.068 105.969,303.133 106.033 M91.242 106.444 C 97.491 109.011,95.618 118.820,88.877 118.832 C 81.956 118.844,80.071 109.030,86.487 106.390 C 87.861 105.825,89.787 105.847,91.242 106.444 M296.383 106.124 C 297.097 106.155,298.222 106.155,298.883 106.124 C 299.543 106.092,298.958 106.066,297.583 106.067 C 296.208 106.067,295.668 106.093,296.383 106.124 " stroke="none" fill="#543ca4" fill-rule="evenodd"></path><path id="path2" d="M300.827 22.233 L 300.110 24.500 297.722 24.500 C 294.885 24.500,294.911 24.448,297.015 25.914 C 299.368 27.554,299.245 27.215,298.403 29.744 C 298.007 30.932,297.705 31.927,297.733 31.955 C 297.760 31.983,298.601 31.406,299.600 30.672 C 301.798 29.060,301.390 29.061,303.579 30.663 C 304.578 31.395,305.417 31.972,305.443 31.946 C 305.468 31.921,305.165 30.902,304.767 29.683 L 304.045 27.466 304.995 26.775 C 305.517 26.394,306.368 25.783,306.885 25.417 C 308.167 24.509,308.154 24.500,305.446 24.500 L 303.058 24.500 302.426 22.436 C 302.078 21.300,301.737 20.280,301.668 20.169 C 301.595 20.051,301.242 20.916,300.827 22.233 M281.108 25.667 C 281.050 25.804,280.715 26.817,280.365 27.917 L 279.728 29.917 277.364 29.963 C 276.064 29.988,275.002 30.063,275.004 30.130 C 275.006 30.196,275.831 30.835,276.837 31.550 C 277.844 32.265,278.667 32.933,278.667 33.035 C 278.667 33.137,278.363 34.155,277.991 35.296 C 277.620 36.438,277.339 37.395,277.367 37.423 C 277.395 37.451,278.269 36.846,279.309 36.080 L 281.200 34.686 282.975 35.978 C 283.951 36.688,284.835 37.320,284.938 37.382 C 285.042 37.444,284.799 36.465,284.398 35.206 C 283.997 33.947,283.669 32.911,283.668 32.904 C 283.667 32.898,284.495 32.304,285.507 31.586 C 286.519 30.868,287.385 30.217,287.433 30.140 C 287.481 30.063,286.436 30.000,285.112 30.000 L 282.704 30.000 281.959 27.708 C 281.523 26.368,281.170 25.520,281.108 25.667 M321.968 25.593 C 321.919 25.679,321.713 26.275,321.511 26.917 C 321.309 27.558,320.990 28.513,320.803 29.037 L 320.463 29.991 318.041 30.037 L 315.619 30.083 317.560 31.476 C 318.627 32.242,319.500 32.917,319.499 32.976 C 319.499 33.035,319.199 34.014,318.832 35.152 C 318.466 36.290,318.167 37.283,318.167 37.359 C 318.167 37.436,318.983 36.899,319.981 36.166 C 322.177 34.552,321.823 34.552,324.020 36.167 C 325.018 36.900,325.867 37.500,325.906 37.500 C 325.945 37.500,325.644 36.509,325.238 35.299 C 324.832 34.088,324.500 33.052,324.500 32.996 C 324.500 32.940,325.379 32.262,326.453 31.489 L 328.406 30.083 325.956 30.037 L 323.507 29.991 322.783 27.714 C 322.385 26.461,322.018 25.507,321.968 25.593 M336.112 42.625 L 335.382 44.917 332.941 44.858 C 331.598 44.826,330.500 44.838,330.500 44.886 C 330.500 44.934,331.362 45.586,332.417 46.333 C 334.630 47.904,334.545 47.636,333.668 50.245 C 333.302 51.334,333.026 52.248,333.054 52.276 C 333.082 52.304,333.887 51.758,334.844 51.063 C 335.801 50.367,336.676 49.761,336.788 49.716 C 336.901 49.671,337.827 50.246,338.846 50.995 C 339.866 51.743,340.719 52.332,340.744 52.303 C 340.768 52.274,340.463 51.241,340.066 50.007 C 339.669 48.773,339.409 47.723,339.489 47.673 C 340.254 47.200,343.154 45.055,343.160 44.958 C 343.163 44.890,342.093 44.833,340.780 44.833 L 338.394 44.833 337.673 42.583 C 337.276 41.346,336.927 40.333,336.897 40.333 C 336.868 40.333,336.514 41.365,336.112 42.625 M265.493 42.732 L 264.780 44.991 262.372 45.037 L 259.965 45.083 261.899 46.466 C 262.963 47.227,263.833 47.864,263.832 47.883 C 263.832 47.902,263.506 48.914,263.108 50.133 C 262.657 51.514,262.465 52.318,262.598 52.267 C 262.715 52.222,263.510 51.671,264.364 51.042 C 265.218 50.413,266.008 49.844,266.120 49.776 C 266.243 49.702,267.053 50.187,268.176 51.007 C 269.195 51.751,270.056 52.333,270.090 52.299 C 270.123 52.266,269.854 51.313,269.492 50.183 C 269.130 49.052,268.836 48.042,268.840 47.938 C 268.844 47.835,269.692 47.150,270.726 46.417 L 272.606 45.083 270.203 45.000 L 267.800 44.917 267.132 42.833 C 266.764 41.688,266.406 40.688,266.335 40.612 C 266.265 40.536,265.886 41.490,265.493 42.732 M341.500 62.970 L 340.750 65.250 338.357 65.296 L 335.963 65.343 337.857 66.693 C 338.898 67.435,339.775 68.064,339.806 68.092 C 339.838 68.119,339.554 69.095,339.176 70.262 C 338.311 72.932,338.250 72.880,340.398 71.319 C 342.577 69.735,342.077 69.733,344.259 71.340 C 346.400 72.917,346.352 72.952,345.501 70.421 C 345.134 69.327,344.833 68.350,344.833 68.250 C 344.833 68.150,345.677 67.471,346.708 66.742 L 348.583 65.417 346.212 65.370 L 343.841 65.324 343.147 63.120 C 342.766 61.908,342.408 60.866,342.352 60.803 C 342.296 60.741,341.912 61.716,341.500 62.970 M260.026 63.079 L 259.325 65.324 256.888 65.371 L 254.450 65.417 256.302 66.713 C 258.601 68.324,258.461 67.908,257.601 70.573 C 257.199 71.822,256.955 72.780,257.060 72.701 C 257.164 72.621,258.056 71.975,259.041 71.264 L 260.832 69.972 262.678 71.335 C 263.694 72.084,264.557 72.665,264.597 72.625 C 264.637 72.585,264.361 71.587,263.984 70.408 L 263.298 68.263 263.703 67.923 C 263.925 67.736,264.811 67.077,265.672 66.458 L 267.236 65.333 264.787 65.333 L 262.339 65.333 261.630 63.083 C 261.240 61.846,260.877 60.833,260.824 60.833 C 260.770 60.833,260.411 61.844,260.026 63.079 M265.511 83.420 L 264.793 85.667 262.387 85.667 C 259.590 85.667,259.613 85.595,261.884 87.195 C 262.819 87.854,263.645 88.444,263.719 88.507 C 263.794 88.571,263.521 89.645,263.112 90.894 C 262.702 92.144,262.395 93.167,262.428 93.167 C 262.462 93.167,263.306 92.567,264.303 91.833 C 266.490 90.225,266.071 90.226,268.254 91.829 C 269.250 92.560,270.088 93.134,270.117 93.105 C 270.146 93.076,269.869 92.112,269.502 90.962 C 269.134 89.812,268.833 88.797,268.833 88.704 C 268.833 88.612,269.715 87.910,270.792 87.144 L 272.750 85.750 270.264 85.667 L 267.778 85.583 267.080 83.454 C 266.695 82.283,266.347 81.291,266.305 81.249 C 266.263 81.207,265.906 82.184,265.511 83.420 M336.131 83.413 L 335.424 85.658 332.944 85.704 L 330.465 85.750 332.399 87.133 C 334.629 88.727,334.539 88.449,333.666 91.072 C 333.302 92.165,333.027 93.083,333.055 93.110 C 333.082 93.138,333.960 92.534,335.004 91.768 L 336.904 90.376 338.410 91.467 C 339.239 92.067,340.085 92.707,340.291 92.890 C 340.865 93.401,340.849 93.249,340.070 90.840 C 339.671 89.606,339.408 88.556,339.486 88.506 C 340.363 87.949,343.152 85.887,343.159 85.792 C 343.163 85.723,342.093 85.667,340.780 85.667 L 338.394 85.667 337.673 83.417 C 337.276 82.179,336.926 81.167,336.895 81.167 C 336.864 81.167,336.521 82.177,336.131 83.413 M280.491 98.253 L 279.736 100.583 277.326 100.667 L 274.917 100.750 275.833 101.426 C 276.337 101.797,277.217 102.426,277.788 102.822 C 278.359 103.219,278.800 103.590,278.767 103.647 C 278.690 103.780,277.333 107.989,277.333 108.094 C 277.333 108.137,278.140 107.585,279.125 106.868 C 280.110 106.151,280.998 105.515,281.097 105.456 C 281.196 105.397,282.090 105.945,283.083 106.674 C 284.076 107.403,284.946 108.000,285.016 108.000 C 285.086 108.000,284.811 107.009,284.405 105.799 C 283.999 104.588,283.667 103.587,283.667 103.574 C 283.667 103.561,284.544 102.920,285.617 102.150 L 287.568 100.750 285.151 100.704 L 282.733 100.658 281.990 98.290 L 281.246 95.922 280.491 98.253 M321.166 98.418 L 320.433 100.658 318.026 100.704 L 315.619 100.750 317.568 102.149 C 318.640 102.918,319.487 103.631,319.450 103.732 C 319.390 103.894,319.155 104.624,318.245 107.463 L 318.017 108.176 318.967 107.501 C 319.489 107.130,320.378 106.491,320.942 106.082 L 321.967 105.337 323.900 106.749 C 324.963 107.525,325.833 108.114,325.833 108.057 C 325.833 108.001,325.518 106.981,325.134 105.789 L 324.434 103.623 324.855 103.270 C 325.087 103.076,325.946 102.429,326.763 101.833 L 328.250 100.750 325.846 100.667 L 323.443 100.583 322.763 98.469 C 322.389 97.305,322.042 96.314,321.991 96.265 C 321.941 96.217,321.570 97.185,321.166 98.418 M300.929 103.449 C 299.992 106.485,300.387 106.150,297.685 106.204 L 295.358 106.250 297.100 107.489 C 298.059 108.170,298.905 108.808,298.981 108.905 C 299.059 109.007,298.815 110.014,298.411 111.250 C 298.022 112.442,297.721 113.436,297.742 113.460 C 297.763 113.484,298.620 112.895,299.646 112.152 C 300.671 111.410,301.602 110.840,301.714 110.888 C 301.825 110.935,302.700 111.540,303.657 112.232 C 304.615 112.925,305.419 113.470,305.444 113.445 C 305.469 113.420,305.165 112.402,304.768 111.183 L 304.046 108.967 304.844 108.393 C 305.282 108.078,306.149 107.450,306.769 106.998 L 307.896 106.176 305.500 106.130 L 303.103 106.083 302.402 103.864 C 302.016 102.643,301.663 101.608,301.618 101.563 C 301.574 101.518,301.263 102.367,300.929 103.449 " stroke="none" fill="#f9ca05" fill-rule="evenodd"></path><path id="path3" d="M208.333 67.167 L 208.333 129.333 301.583 129.333 L 394.833 129.333 394.833 67.167 L 394.833 5.000 301.583 5.000 L 208.333 5.000 208.333 67.167 M20.625 12.625 C 22.848 12.651,26.485 12.651,28.708 12.625 C 30.931 12.599,29.113 12.577,24.667 12.577 C 20.221 12.577,18.402 12.599,20.625 12.625 M302.408 22.198 L 303.114 24.417 305.599 24.500 L 308.083 24.583 307.500 25.017 C 307.179 25.255,306.317 25.885,305.583 26.416 C 304.850 26.947,304.221 27.406,304.185 27.436 C 304.149 27.466,304.437 28.474,304.824 29.676 C 305.675 32.320,305.697 32.288,303.920 30.976 C 303.132 30.393,302.276 29.785,302.018 29.624 L 301.550 29.332 299.683 30.685 C 297.453 32.300,297.512 32.324,298.233 30.101 C 299.137 27.311,299.138 27.487,298.214 26.838 C 297.776 26.530,296.894 25.896,296.256 25.430 L 295.095 24.583 297.579 24.500 L 300.063 24.417 300.802 22.118 C 301.208 20.853,301.577 19.855,301.622 19.899 C 301.666 19.944,302.020 20.978,302.408 22.198 M282.173 28.121 L 282.744 29.992 285.223 30.038 L 287.702 30.083 285.768 31.466 C 284.704 32.227,283.833 32.946,283.833 33.064 C 283.833 33.183,284.131 34.206,284.495 35.339 C 284.859 36.472,285.125 37.430,285.086 37.469 C 285.047 37.508,284.243 36.981,283.299 36.298 C 282.356 35.615,281.489 35.001,281.373 34.934 C 281.244 34.859,280.445 35.332,279.293 36.166 C 277.094 37.759,277.105 37.769,278.005 35.069 C 278.389 33.915,278.639 32.915,278.560 32.848 C 278.481 32.780,277.592 32.131,276.583 31.404 L 274.750 30.083 277.198 30.037 L 279.647 29.991 280.344 27.787 C 280.728 26.575,281.080 25.518,281.127 25.437 C 281.241 25.242,281.491 25.882,282.173 28.121 M322.845 27.747 L 323.564 30.000 325.949 30.000 C 328.602 30.000,328.665 30.031,327.542 30.791 C 324.333 32.961,324.432 32.735,325.402 35.662 C 326.104 37.782,326.125 37.755,324.629 36.660 C 323.962 36.172,323.102 35.550,322.717 35.277 L 322.018 34.782 320.243 36.069 C 317.677 37.930,317.820 38.149,319.062 34.256 C 319.295 33.525,319.429 32.888,319.360 32.839 C 317.748 31.705,315.812 30.267,315.740 30.151 C 315.686 30.063,316.653 30.000,318.043 30.000 L 320.439 30.000 321.136 27.868 C 321.520 26.696,321.833 25.641,321.833 25.525 C 321.833 24.923,322.199 25.727,322.845 27.747 M337.574 42.125 C 338.514 45.170,338.097 44.833,340.923 44.833 C 342.450 44.833,343.316 44.893,343.253 44.995 C 343.198 45.084,342.331 45.732,341.327 46.436 C 340.322 47.140,339.500 47.803,339.500 47.910 C 339.500 48.016,339.804 49.026,340.176 50.154 C 341.007 52.674,341.048 52.640,338.974 51.146 C 338.036 50.470,337.170 49.857,337.052 49.784 C 336.912 49.698,336.381 49.993,335.543 50.621 C 332.643 52.795,332.764 52.829,333.652 50.089 C 334.472 47.558,334.475 47.853,333.621 47.259 C 333.234 46.989,332.354 46.352,331.667 45.842 L 330.417 44.917 332.898 44.833 L 335.379 44.750 336.115 42.458 C 336.520 41.198,336.877 40.167,336.910 40.167 C 336.942 40.167,337.241 41.048,337.574 42.125 M266.900 41.959 C 267.166 42.852,267.518 43.900,267.684 44.287 L 267.984 44.991 270.330 45.037 L 272.676 45.083 270.755 46.468 C 269.698 47.230,268.833 47.871,268.833 47.893 C 268.833 47.915,269.135 48.867,269.503 50.008 C 270.377 52.713,270.393 52.699,268.190 51.081 L 266.297 49.691 264.369 51.094 C 263.308 51.865,262.415 52.471,262.384 52.439 C 262.353 52.408,262.654 51.367,263.055 50.126 L 263.782 47.869 261.789 46.439 L 259.795 45.009 262.260 44.963 L 264.725 44.917 265.472 42.625 C 266.362 39.895,266.295 39.926,266.900 41.959 M261.658 63.001 L 262.400 65.333 264.825 65.337 L 267.250 65.341 266.833 65.674 C 266.604 65.858,265.723 66.497,264.875 67.095 C 264.027 67.694,263.335 68.198,263.337 68.216 C 263.339 68.235,263.667 69.262,264.065 70.500 C 264.464 71.737,264.765 72.779,264.734 72.814 C 264.703 72.849,263.848 72.268,262.833 71.522 C 260.545 69.840,261.170 69.751,257.871 72.222 C 256.734 73.073,256.738 73.087,257.499 70.713 C 257.856 69.598,258.171 68.575,258.199 68.438 C 258.231 68.284,257.506 67.654,256.275 66.766 L 254.300 65.342 256.775 65.296 L 259.250 65.250 259.990 62.958 C 260.397 61.698,260.772 60.667,260.823 60.668 C 260.875 60.668,261.250 61.718,261.658 63.001 M343.142 62.917 L 343.852 65.167 346.273 65.167 C 349.117 65.167,349.097 65.098,346.750 66.785 C 344.636 68.306,344.729 67.965,345.662 70.755 C 346.422 73.031,346.446 73.022,344.137 71.327 L 342.313 69.987 341.448 70.617 C 340.973 70.964,340.103 71.606,339.516 72.043 C 338.928 72.479,338.420 72.809,338.386 72.774 C 338.330 72.719,339.614 68.580,339.770 68.308 C 339.805 68.248,338.971 67.578,337.917 66.819 C 336.862 66.060,336.000 65.378,336.000 65.303 C 336.000 65.228,337.075 65.167,338.389 65.167 L 340.777 65.167 341.488 62.917 C 341.879 61.679,342.251 60.667,342.316 60.667 C 342.380 60.667,342.752 61.679,343.142 62.917 M337.751 83.500 L 338.428 85.583 340.919 85.667 L 343.410 85.750 342.966 86.083 C 342.722 86.267,341.842 86.899,341.011 87.489 C 339.247 88.741,339.325 88.413,340.181 90.983 C 341.071 93.654,341.166 93.629,338.309 91.465 C 336.762 90.293,337.174 90.245,334.982 91.847 C 333.968 92.587,333.100 93.156,333.054 93.110 C 333.008 93.064,333.277 92.079,333.652 90.922 C 334.477 88.374,334.480 88.645,333.625 88.065 C 333.235 87.801,332.354 87.172,331.667 86.668 L 330.417 85.750 332.894 85.667 L 335.372 85.583 336.126 83.250 C 336.541 81.967,336.924 81.029,336.978 81.167 C 337.031 81.304,337.379 82.354,337.751 83.500 M267.136 83.418 L 267.855 85.667 270.270 85.667 C 271.766 85.667,272.649 85.727,272.588 85.826 C 272.534 85.914,271.685 86.562,270.703 87.266 C 269.720 87.970,268.892 88.566,268.863 88.591 C 268.833 88.615,269.126 89.618,269.514 90.819 C 269.902 92.020,270.178 93.045,270.126 93.096 C 270.075 93.147,269.199 92.577,268.179 91.828 C 266.416 90.533,266.308 90.479,265.955 90.717 C 265.750 90.855,264.871 91.493,264.000 92.134 C 263.129 92.776,262.393 93.278,262.364 93.250 C 262.334 93.222,262.616 92.245,262.989 91.078 C 263.362 89.912,263.667 88.868,263.667 88.759 C 263.667 88.650,262.788 87.928,261.714 87.155 L 259.761 85.750 262.256 85.702 L 264.750 85.654 265.467 83.410 C 265.861 82.176,266.236 81.167,266.300 81.168 C 266.364 81.169,266.740 82.182,267.136 83.418 M282.072 98.356 L 282.792 100.583 285.248 100.667 L 287.703 100.750 285.768 102.133 C 284.704 102.894,283.833 103.600,283.833 103.702 C 283.833 103.804,284.142 104.817,284.519 105.953 C 284.895 107.089,285.169 108.053,285.126 108.096 C 285.083 108.139,284.192 107.548,283.144 106.784 L 281.240 105.394 279.333 106.794 C 277.096 108.435,277.123 108.454,277.992 105.818 C 278.363 104.692,278.667 103.716,278.667 103.651 C 278.667 103.586,277.797 102.906,276.734 102.141 L 274.801 100.750 277.218 100.704 C 279.324 100.664,279.649 100.621,279.748 100.371 C 279.810 100.213,280.119 99.258,280.434 98.250 C 281.160 95.929,281.157 95.935,281.263 96.041 C 281.312 96.090,281.676 97.132,282.072 98.356 M322.825 98.454 L 323.524 100.658 325.952 100.704 L 328.381 100.750 326.440 102.143 C 325.373 102.909,324.500 103.558,324.500 103.586 C 324.500 103.614,324.829 104.656,325.230 105.902 C 325.632 107.147,325.920 108.167,325.870 108.167 C 325.821 108.167,324.998 107.599,324.041 106.905 C 323.084 106.212,322.196 105.604,322.067 105.554 C 321.934 105.503,321.029 106.054,319.981 106.825 C 318.963 107.573,318.101 108.157,318.065 108.121 C 318.030 108.085,318.308 107.105,318.684 105.943 C 319.510 103.389,319.597 103.641,317.338 102.050 L 315.492 100.750 317.946 100.667 L 320.399 100.583 321.141 98.283 C 321.550 97.019,321.938 96.044,322.005 96.117 C 322.072 96.190,322.441 97.242,322.825 98.454 M302.399 103.689 L 303.115 105.917 305.558 105.963 C 306.901 105.988,307.998 106.063,307.995 106.129 C 307.992 106.196,307.130 106.845,306.078 107.572 C 305.027 108.299,304.167 108.952,304.167 109.023 C 304.167 109.094,304.473 110.099,304.848 111.256 C 305.223 112.413,305.490 113.399,305.441 113.448 C 305.393 113.496,304.580 112.977,303.635 112.294 C 302.690 111.611,301.830 111.003,301.723 110.942 C 301.617 110.882,300.720 111.432,299.730 112.166 C 298.172 113.321,297.667 113.637,297.667 113.458 C 297.667 113.435,297.965 112.479,298.330 111.333 C 298.695 110.188,298.995 109.174,298.997 109.080 C 298.999 108.987,298.119 108.274,297.042 107.497 L 295.083 106.083 297.625 106.037 C 299.398 106.005,300.167 105.934,300.167 105.800 C 300.167 105.496,301.539 101.317,301.615 101.392 C 301.652 101.430,302.005 102.463,302.399 103.689 M116.297 121.790 C 116.782 121.824,117.532 121.823,117.964 121.789 C 118.396 121.755,118.000 121.727,117.083 121.728 C 116.167 121.728,115.813 121.756,116.297 121.790 M124.880 121.789 C 125.318 121.824,125.993 121.823,126.380 121.788 C 126.767 121.754,126.408 121.725,125.583 121.726 C 124.758 121.726,124.442 121.755,124.880 121.789 M138.213 121.789 C 138.652 121.824,139.327 121.823,139.713 121.788 C 140.100 121.754,139.742 121.725,138.917 121.726 C 138.092 121.726,137.775 121.755,138.213 121.789 M165.875 121.789 C 166.310 121.824,167.023 121.824,167.458 121.789 C 167.894 121.755,167.537 121.727,166.667 121.727 C 165.796 121.727,165.440 121.755,165.875 121.789 M175.042 121.789 C 175.477 121.824,176.190 121.824,176.625 121.789 C 177.060 121.755,176.704 121.727,175.833 121.727 C 174.963 121.727,174.606 121.755,175.042 121.789 " stroke="none" fill="#04349b" fill-rule="evenodd"></path></g></svg>